<svg width="21" height="23" viewBox="0 0 21 23" fill="none" xmlns="http://www.w3.org/2000/svg">
<path fill-rule="evenodd" clip-rule="evenodd" d="M6.94347 2.25655C7.81666 1.35233 9.05221 0.866669 10.4969 0.866669C11.9415 0.866669 13.177 1.35233 14.0502 2.25656C14.9182 3.1554 15.3453 4.38178 15.3453 5.71515H16.44C17.9716 5.71515 19.2408 6.90259 19.3427 8.43073L20.0538 19.0974C20.1657 20.7765 18.8339 22.2 17.1511 22.2H3.84257C2.15977 22.2 0.827986 20.7765 0.939924 19.0974L1.65104 8.43073C1.75291 6.9026 3.02215 5.71515 4.55368 5.71515H5.64836C5.64836 4.38178 6.07548 3.1554 6.94347 2.25655ZM5.64836 7.65455V11.5333C5.64836 12.0689 6.08251 12.503 6.61806 12.503C7.15361 12.503 7.58776 12.0689 7.58776 11.5333V7.65455H13.4059V11.5333C13.4059 12.0689 13.8401 12.503 14.3756 12.503C14.9112 12.503 15.3453 12.0689 15.3453 11.5333V7.65455H16.44C16.9505 7.65455 17.3736 8.05036 17.4076 8.55974L18.1187 19.2264C18.156 19.7861 17.7121 20.2606 17.1511 20.2606H3.84257C3.28164 20.2606 2.83771 19.7861 2.87502 19.2264L3.58613 8.55974C3.62009 8.05036 4.04317 7.65455 4.55368 7.65455H5.64836ZM13.4059 5.71515H7.58776C7.58776 4.79358 7.87811 4.08057 8.33856 3.60376C8.79381 3.13233 9.49765 2.80606 10.4969 2.80606C11.4961 2.80606 12.1999 3.13233 12.6551 3.60376C13.1156 4.08057 13.4059 4.79358 13.4059 5.71515ZM4.67867 17.3515C4.67867 16.816 5.11281 16.3818 5.64836 16.3818H15.3453C15.8809 16.3818 16.315 16.816 16.315 17.3515C16.315 17.8871 15.8809 18.3212 15.3453 18.3212H5.64836C5.11281 18.3212 4.67867 17.8871 4.67867 17.3515Z" fill="#282828"/>
</svg>
