<svg width="23" height="24" viewBox="0 0 23 24" fill="none" xmlns="http://www.w3.org/2000/svg">
<path d="M2.79759 8H19.5831V21C19.5831 22.6569 18.3306 24 16.7856 24H5.59518C4.05012 24 2.79759 22.6569 2.79759 21V8ZM8.39278 19V12H6.52771V19H8.39278ZM12.1229 19V12H10.2578V19H12.1229ZM15.853 19V12H13.988V19H15.853ZM21.4482 4C21.9632 4 22.3807 4.44772 22.3807 5C22.3807 5.55228 21.9632 6 21.4482 6H0.932531C0.417508 6 0 5.55228 0 5C0 4.44772 0.417508 4 0.932531 4H6.52771V1C6.52771 0.447715 6.94522 0 7.46025 0H14.9205C15.4355 0 15.853 0.447715 15.853 1V4H21.4482ZM8.39278 2V4H13.988V2H8.39278Z" fill="#D0C9D6"/>
</svg>
